<svg width="90" height="130" viewBox="0 0 90 130" fill="none" xmlns="http://www.w3.org/2000/svg">
<path d="M62.7716 20.0616C61.8032 18.7437 59.9491 18.4602 58.6308 19.4289C57.3125 20.3977 57.0293 22.2515 57.9977 23.5698C79.5514 52.8996 84.0757 72.3597 84.0757 83.52C84.0757 94.456 80.8088 104.37 74.8766 111.436C67.9578 119.676 57.9057 123.855 44.9998 123.855C16.1577 123.855 5.92394 102.126 5.92394 83.52C5.92394 62.894 17.0226 42.7499 26.3335 29.4822C36.5456 14.9303 46.9132 5.22767 47.0159 5.1321C48.2145 4.01879 48.2832 2.14446 47.1699 0.94585C46.0566 -0.252365 44.1823 -0.321478 42.9841 0.791827C42.5457 1.199 32.1247 10.9407 21.5576 25.9745C11.7235 39.966 0 61.3068 0 83.5196C0 95.7869 3.82015 107.057 10.7563 115.253C18.7974 124.756 30.639 129.778 44.9998 129.778C59.5308 129.778 71.4308 124.753 79.4135 115.245C86.2403 107.114 90 95.8469 90 83.52C89.9996 61.6942 75.1929 36.9642 62.7716 20.0616Z" fill="black"/>
<path d="M58.4762 58.5072L20.8939 96.0894C19.7372 97.2462 19.7372 99.1217 20.8939 100.278C21.4725 100.856 22.2308 101.146 22.9886 101.146C23.7465 101.146 24.5048 100.857 25.0833 100.278L62.6656 62.6958C63.8223 61.5391 63.8223 59.6636 62.6656 58.5072C61.508 57.3505 59.6329 57.3505 58.4762 58.5072Z" fill="black"/>
<path d="M55.9235 82.1055C50.6741 82.1055 46.4033 86.3762 46.4033 91.6256C46.4033 96.875 50.6741 101.146 55.9235 101.146C61.1729 101.146 65.4436 96.875 65.4436 91.6256C65.4436 86.3762 61.1729 82.1055 55.9235 82.1055ZM55.9235 95.2219C53.9405 95.2219 52.3273 93.6086 52.3273 91.6256C52.3273 89.6427 53.9405 88.0294 55.9235 88.0294C57.9064 88.0294 59.5197 89.6427 59.5197 91.6256C59.5197 93.6086 57.9064 95.2219 55.9235 95.2219Z" fill="black"/>
<path d="M29.5475 76.68C34.7969 76.68 39.0677 72.4092 39.0677 67.1598C39.0677 61.9104 34.7969 57.6396 29.5475 57.6396C24.2981 57.6396 20.0273 61.9104 20.0273 67.1598C20.0273 72.4092 24.2981 76.68 29.5475 76.68ZM29.5475 63.5632C31.5304 63.5632 33.1437 65.1765 33.1437 67.1594C33.1437 69.1424 31.5304 70.7556 29.5475 70.7556C27.5646 70.7556 25.9513 69.1424 25.9513 67.1594C25.9513 65.1765 27.5642 63.5632 29.5475 63.5632Z" fill="black"/>
</svg>
