<svg width="77" height="180" viewBox="0 0 77 180" fill="none" xmlns="http://www.w3.org/2000/svg">
<path d="M45.0003 126.083V86.5383C45.0003 82.7168 41.8988 79.6152 38.0772 79.6152C34.2522 79.6152 31.1541 82.7168 31.1541 86.5383V126.083C25.0515 128.759 20.7695 134.844 20.7695 141.923C20.7695 151.466 28.5338 159.231 38.0772 159.231C47.6207 159.231 55.3849 151.466 55.3849 141.923C55.3849 134.844 51.103 128.759 45.0003 126.083ZM38.0772 145.384C36.1665 145.384 34.6157 143.834 34.6157 141.923C34.6157 140.012 36.1665 138.461 38.0772 138.461C39.988 138.461 41.5388 140.012 41.5388 141.923C41.5388 143.834 39.988 145.384 38.0772 145.384Z" fill="black"/>
<path d="M65.8004 115.82L65.7692 27.6923C65.7692 12.4235 53.3458 0 38.0769 0C22.8081 0 10.3846 12.4235 10.3846 27.6888L10.35 115.82C3.73847 122.857 0 132.203 0 141.923C0 162.917 17.0827 180 38.0769 180C59.0712 180 76.1538 162.917 76.1538 141.923C76.1538 132.2 72.4154 122.853 65.8004 115.82ZM38.0769 166.154C24.7188 166.154 13.8462 155.281 13.8462 141.923C13.8462 135.055 16.7815 128.475 21.9012 123.878C23.3619 122.563 24.1962 120.693 24.1962 118.731L24.2308 27.6923C24.2308 20.0562 30.4408 13.8462 38.0769 13.8462C45.7131 13.8462 51.9231 20.0562 51.9231 27.6958L51.9542 118.731C51.9542 120.693 52.7885 122.566 54.2527 123.878C59.3689 128.475 62.3077 135.052 62.3077 141.923C62.3077 155.281 51.435 166.154 38.0769 166.154Z" fill="black"/>
</svg>
